<svg xmlns="http://www.w3.org/2000/svg" xmlns:xlink="http://www.w3.org/1999/xlink" version="1.1" style="fill:#d4e5f7;" x="0px" y="0px" viewBox="0 0 124.401 335.00374999999997" ><g><ellipse transform="matrix(0.9739 -0.2268 0.2268 0.9739 -12.0213 18.3679)" cx="73.927" cy="61.501" rx="22.495" ry="22.495"/><path d="M117.326,91.609c3.558-6.813,7.079-16.812,7.075-29.416c0.029-16.265-5.943-36.499-23.672-59.121   c-2.72-3.48-7.748-4.095-11.229-1.373c-3.48,2.72-4.097,7.748-1.375,11.229c15.971,20.486,20.247,36.898,20.277,49.265   c-0.004,9.608-2.651,16.997-5.264,22.02c-0.997,1.914-1.986,3.467-2.81,4.637H65.22c-0.872,0-1.707,0.151-2.488,0.416   c-1.658,0.458-3.183,1.443-4.289,2.93l0,0c-0.181,0.25-2.667,3.438-6.011,6.296c-1.689,1.457-3.594,2.814-5.365,3.701   c-1.778,0.903-3.344,1.294-4.475,1.282c-1.375-0.076-2.371-0.226-4.422-2.177c-1.704-1.684-3.885-4.987-5.947-10.477l5.649-6.361   c2.105-0.198,4.195-1.269,5.687-3.139c2.756-3.457,2.422-8.306-0.741-10.829c-3.167-2.524-7.968-1.768-10.723,1.689   c-1.493,1.87-2.07,4.146-1.795,6.242l-3.333,4.67c-1.768-0.827-3.837-1.02-5.84-0.373c-4.205,1.359-6.512,5.868-5.154,10.072   c0.433,1.332,0.885,2.591,1.348,3.816L8.32,109.221l1.388,1.106C6.353,113.951,0.05,121.951,0,131.277   c-0.004,3.671,1.018,7.538,3.602,11.289c5.309,7.7,13.804,23.952,13.786,40.13c-0.008,9.389-2.803,18.72-10.67,26.597l1.416,1.415   c8.283-8.276,11.264-18.235,11.254-28.012c-0.016-16.873-8.688-33.317-14.138-41.262C2.894,138,2.004,134.582,2,131.277   c-0.008-5.705,2.735-11.114,5.532-15.083c1.353-1.927,2.707-3.504,3.743-4.618l1.475,1.176l7.847-8.837   c1.836,3.422,3.888,6.292,6.224,8.661c4.385,4.528,10.18,6.903,15.519,6.903c0.085,0,0.169-0.001,0.254-0.002   c4.577-0.012,8.599-1.407,12.005-3.164c1.014-0.529,1.969-1.101,2.894-1.689v47.925c-1.973,2.968-4.209,6.694-6.442,11.171   c-6.088,12.206-12.11,30.07-12.104,52.576c-0.002,9.767,1.13,20.386,3.837,31.719c1.423,5.97,6.753,9.987,12.633,9.988   c0.999,0,2.013-0.116,3.028-0.358c6.984-1.664,11.294-8.677,9.629-15.661c-2.235-9.371-3.127-17.922-3.127-25.687   c0.004-17.843,4.725-31.63,9.377-40.982c2.322-4.666,4.628-8.197,6.278-10.475c0.671-0.929,1.226-1.637,1.635-2.141h3.483   c0.493,14.938,2.685,46.543,12.073,85.36c1.439,5.951,6.762,9.945,12.626,9.945c1.012,0,2.04-0.119,3.067-0.367   c6.978-1.689,11.266-8.716,9.576-15.693c-10.87-44.874-11.487-79.768-11.48-86.738c0-0.082,0-0.138,0.001-0.211   c0-0.008,0.001-0.015,0.001-0.023v-0.293c0.002-0.193,0.003-0.357,0.004-0.475c0.002-0.209,0.004-0.247,0.004-0.247   c0.002-0.099-0.008-0.194-0.008-0.293v-63.169C113.045,98.677,115.186,95.708,117.326,91.609z"/></g></svg>
