<?xml version="1.0" encoding="UTF-8" standalone="no"?>
<!-- Created with Inkscape (http://www.inkscape.org/) -->

<svg
   xmlns:dc="http://purl.org/dc/elements/1.1/"
   xmlns:cc="http://creativecommons.org/ns#"
   xmlns:rdf="http://www.w3.org/1999/02/22-rdf-syntax-ns#"
   xmlns:svg="http://www.w3.org/2000/svg"
   xmlns="http://www.w3.org/2000/svg"
   xmlns:sodipodi="http://sodipodi.sourceforge.net/DTD/sodipodi-0.dtd"
   xmlns:inkscape="http://www.inkscape.org/namespaces/inkscape"
   width="207mm"
   height="99mm"
   viewBox="0 0 207 99"
   version="1.1"
   id="svg8"
   inkscape:version="0.92.3 (2405546, 2018-03-11)"
   sodipodi:docname="helpoverview.svg">
  <defs
     id="defs2" />
  <sodipodi:namedview
     id="base"
     pagecolor="#ffffff"
     bordercolor="#666666"
     borderopacity="1.0"
     inkscape:pageopacity="0.0"
     inkscape:pageshadow="2"
     inkscape:zoom="0.7"
     inkscape:cx="134.28571"
     inkscape:cy="560"
     inkscape:document-units="mm"
     inkscape:current-layer="g4752"
     showgrid="false"
     showguides="false"
     inkscape:window-width="1853"
     inkscape:window-height="1025"
     inkscape:window-x="67"
     inkscape:window-y="27"
     inkscape:window-maximized="1"
     width="209mm" />
  <metadata
     id="metadata5">
    <rdf:RDF>
      <cc:Work
         rdf:about="">
        <dc:format>image/svg+xml</dc:format>
        <dc:type
           rdf:resource="http://purl.org/dc/dcmitype/StillImage" />
        <dc:title></dc:title>
      </cc:Work>
    </rdf:RDF>
  </metadata>
  <g
     inkscape:label="Layer 1"
     inkscape:groupmode="layer"
     id="layer1"
     transform="translate(0,-198)">
    <g
       id="g4752">
      <path
         id="path3765"
         d="m 147.11563,257.56845 c -0.82977,-0.86381 -3.99357,-5.95676 -3.99357,-7.30976 0,-0.61701 0.12729,-1.12296 0.28847,-1.76465 0.25028,-0.99161 0.55996,-2.22651 0.55996,-4.40542 0,-5.2472 -3.30379,-18.93417 -13.11932,-25.42419 -5.0626,-3.34682 -13.36453,-5.42613 -21.66644,-5.42613 -3.26733,0 -14.494649,0.59056 -21.810688,8.1912 -6.224107,6.46534 -7.88449,18.39384 -7.88449,24.422 0,5.19342 2.76674,11.83594 5.133869,16.09858 0.03732,0.1428 0.09756,0.27853 0.205321,0.39047 0.0059,0.006 0.01353,0.007 0.01866,0.0132 0.579478,1.01806 1.129264,1.88628 1.599296,2.53678 2.410399,3.33977 3.224047,4.98541 3.224047,6.52264 0,5.59537 -1.64087,13.42166 -4.179383,19.93989 -0.04243,0.10842 -0.06278,0.22388 -0.06194,0.34023 0,0.0564 0.02036,0.11019 0.03139,0.1666 0.01108,0.0555 0.01271,0.11106 0.03393,0.16394 0.05939,0.14808 0.16714,0.26796 0.29695,0.36492 0.08145,0.0599 0.166294,0.10665 0.259622,0.13309 0.07466,0.022 0.150177,0.0458 0.225683,0.0458 0.100107,0 0.195988,-0.0229 0.287619,-0.0582 0.02715,-0.01 0.0509,-0.0238 0.07636,-0.037 0.06958,-0.0344 0.13321,-0.0784 0.191747,-0.13134 0.01434,-0.0132 0.03139,-0.0176 0.04497,-0.0309 l 6.787467,-7.0515 c 0.331741,-0.34464 0.331741,-0.90171 0,-1.24635 -0.331739,-0.34464 -0.867948,-0.34464 -1.199685,0 l -4.086055,4.245 c 0.30374,-0.9493 0.586267,-1.9039 0.848433,-2.86467 0.06787,-0.0388 0.137448,-0.074 0.195141,-0.13397 l 6.787467,-7.05151 c 0.33173,-0.34464 0.33173,-0.90171 0,-1.24635 -0.33174,-0.34464 -0.86795,-0.34464 -1.19969,0 l -4.973512,5.16611 c 0.277438,-1.25341 0.519241,-2.49271 0.712683,-3.70821 0.134905,-0.0397 0.263863,-0.10137 0.369917,-0.21155 l 6.787462,-7.0515 c 0.33174,-0.34464 0.33174,-0.90171 0,-1.24635 -0.33173,-0.34465 -0.86794,-0.34465 -1.19968,0 l -5.598811,5.81661 c 0.112836,-1.04715 0.180716,-2.05023 0.21635,-3.02069 l 6.581301,-6.8382 c 0.33173,-0.34464 0.33173,-0.90171 0,-1.24635 -0.33174,-0.34464 -0.86795,-0.34464 -1.19969,0 l -5.453722,5.66592 c -0.117928,-0.64248 -0.334273,-1.31326 -0.695706,-2.07306 l 5.652258,-5.87213 c 0.33174,-0.34465 0.33174,-0.90172 0,-1.24636 -0.33173,-0.34464 -0.86794,-0.34464 -1.19968,0 l -5.326463,5.53367 c -0.312225,-0.51212 -0.668566,-1.06214 -1.085147,-1.66857 l 5.066844,-5.26394 c 0.331736,-0.34464 0.331736,-0.90171 0,-1.24635 -0.331738,-0.34465 -0.867948,-0.34465 -1.199685,0 l -4.877642,5.06738 c -0.343616,-0.49625 -0.701655,-1.06125 -1.069027,-1.68531 l 4.601053,-4.78004 c 0.331738,-0.34464 0.331738,-0.9017 0,-1.24635 -0.331737,-0.34464 -0.867947,-0.34464 -1.199684,0 l -4.28289,4.4495 c -0.307982,-0.58439 -0.615115,-1.20581 -0.91631,-1.84485 l 4.702019,-4.88405 c 0.331737,-0.34464 0.331737,-0.90171 0,-1.24635 -0.331738,-0.34464 -0.867948,-0.34464 -1.199685,0 l -4.26762,4.43275 c -0.29271,-0.68488 -0.570995,-1.3865 -0.83401,-2.09518 0.131515,-0.0397 0.258772,-0.10137 0.362281,-0.20978 l 5.090599,-5.28862 c 0.331739,-0.34465 0.331739,-0.90172 0,-1.24636 -0.331737,-0.34464 -0.867946,-0.34464 -1.199685,0 l -4.848795,5.03742 c -0.233318,-0.72014 -0.442034,-1.43939 -0.62275,-2.14894 l 6.67123,-6.93075 c 0.331739,-0.34464 0.331739,-0.90171 0,-1.24635 -0.331737,-0.34465 -0.867946,-0.34465 -1.199685,0 l -5.90764,6.13745 c -0.151872,-0.8788 -0.244348,-1.7241 -0.265559,-2.51915 l 6.524451,-6.77826 c 0.331737,-0.34464 0.331737,-0.90171 0,-1.24635 -0.331737,-0.34464 -0.867947,-0.34464 -1.199684,0 l -5.270468,5.47549 c 0.056,-0.98368 0.150177,-2.05199 0.290164,-3.18111 0.0857,-0.0423 0.169687,-0.0917 0.240956,-0.16571 l 6.787465,-7.0515 c 0.331739,-0.34465 0.331739,-0.90171 0,-1.24636 -0.331737,-0.34464 -0.867946,-0.34464 -1.199685,0 l -5.390944,5.60066 c 0.246894,-1.34507 0.567601,-2.72893 0.956184,-4.1075 0.197686,-0.0142 0.392825,-0.0899 0.543846,-0.2468 l 6.787466,-7.05151 c 0.331738,-0.34464 0.331738,-0.90171 0,-1.24635 -0.331737,-0.34464 -0.867947,-0.34464 -1.199684,0 l -5.022725,5.21811 c 1.097024,-2.8206 2.564814,-5.4605 4.525542,-7.49751 6.853647,-7.1229 17.508276,-7.67644 20.610156,-7.67644 7.87601,0 16.02266,2.02202 20.75522,5.15112 8.71595,5.76196 12.33368,18.43263 12.33368,23.93633 0,1.95238 -0.2681,3.01892 -0.50483,3.9603 -0.17646,0.7025 -0.34361,1.36623 -0.34361,2.20976 0,2.14278 3.61093,7.64207 4.49076,8.55612 1.83346,1.90567 2.26192,2.63903 2.29671,2.90257 0,0.97752 -0.6779,1.39973 -2.22544,2.12779 -0.87559,0.41164 -1.86825,0.8788 -2.61657,1.65623 -0.24012,0.24945 -0.31392,0.62317 -0.18835,0.95019 l 1.47541,3.83249 c -0.58286,0.48655 -1.54245,1.12912 -2.38408,1.12912 -0.39368,0 -0.7356,0.2803 -0.82554,0.67871 -0.0908,0.39841 0.0942,0.80916 0.44543,0.99162 0.6847,0.35434 0.98673,0.90347 1.12164,1.31334 -0.93073,0.46275 -2.4384,1.47817 -2.4384,3.1864 0,1.20845 0.34446,2.07314 0.59644,2.70425 0.13577,0.33935 0.25199,0.63199 0.25199,0.8215 0,0.0441 -0.18496,4.40719 -6.78746,4.40719 -10.58845,0 -18.07078,-5.92591 -18.14545,-5.98496 -0.36991,-0.29793 -0.90189,-0.2283 -1.1895,0.15601 -0.28762,0.38518 -0.22145,0.93784 0.1493,1.23577 0.17394,0.14103 2.52409,1.99734 6.41161,3.66766 -1.61371,4.20975 -2.44517,6.7906 -2.45451,6.81616 -0.14767,0.46099 0.0924,0.96077 0.53706,1.1159 0.0892,0.0299 0.17986,0.045 0.2681,0.045 0.35549,0 0.68639,-0.23358 0.80517,-0.6029 0.008,-0.0256 0.82891,-2.57116 2.42736,-6.73948 3.05606,1.13618 6.85535,2.05375 11.19084,2.05375 6.9597,0 8.48433,-4.4539 8.48433,-6.17006 0,-0.54032 -0.18496,-1.00396 -0.38095,-1.49492 -0.22993,-0.57734 -0.46748,-1.17319 -0.46748,-2.03083 0,-0.91053 1.45675,-1.6289 1.96496,-1.80783 0.34702,-0.11987 0.58034,-0.45659 0.58034,-0.83648 0,-0.0652 -0.0114,-1.16703 -0.74407,-2.20536 1.17677,-0.5509 2.05659,-1.43763 2.19235,-1.57866 0.24009,-0.24945 0.31391,-0.62317 0.18834,-0.95019 l -1.47033,-3.81839 c 0.4921,-0.36667 1.10552,-0.65403 1.7028,-0.93608 1.43555,-0.67518 3.22151,-1.5152 3.22151,-3.73289 0,-1.04274 -1.02406,-2.31025 -2.79389,-4.14893 z"
         inkscape:connector-curvature="0"
         style="stroke-width:0.8647781" />
      <g
         transform="translate(20.78869,200.70535)"
         id="g4671">
        <ellipse
           style="fill:none;stroke:#000000;stroke-width:0.78795302;stroke-miterlimit:4;stroke-dasharray:none;stroke-opacity:0.98930485"
           ry="7.4592285"
           rx="15.017177"
           cy="47.854206"
           cx="43.279427"
           id="path3786" />
        <text
           id="text4595"
           y="51.133175"
           x="30.349316"
           style="font-style:normal;font-weight:normal;font-size:8.64162636px;line-height:1.25;font-family:sans-serif;letter-spacing:0px;word-spacing:0px;fill:#000000;fill-opacity:1;stroke:none;stroke-width:0.21604066"
           xml:space="preserve"
           transform="scale(1.0137004,0.98648475)"><tspan
             y="51.133175"
             x="30.349316"
             id="tspan4593"
             sodipodi:role="line"
             style="stroke-width:0.21604066">Intent</tspan></text>
      </g>
      <g
         transform="translate(40.821428,154.59226)"
         id="g4656">
        <ellipse
           style="fill:none;stroke:#000000;stroke-width:1.00026309;stroke-miterlimit:4;stroke-dasharray:none;stroke-opacity:0.98930485"
           ry="7.3530736"
           rx="24.549414"
           cy="116.81402"
           cx="139.57945"
           id="path3786-2" />
        <text
           id="text4595-1"
           y="121.03776"
           x="115.83969"
           style="font-style:normal;font-weight:normal;font-size:8.64162636px;line-height:1.25;font-family:sans-serif;letter-spacing:0px;word-spacing:0px;fill:#000000;fill-opacity:1;stroke:none;stroke-width:0.21604066"
           xml:space="preserve"
           transform="scale(1.0137004,0.98648475)"><tspan
             y="121.03776"
             x="115.83969"
             id="tspan4593-7"
             sodipodi:role="line"
             style="stroke-width:0.21604066">Utterance</tspan></text>
      </g>
      <g
         transform="translate(36.285714,114.90476)"
         id="g4661">
        <ellipse
           style="fill:none;stroke:#000000;stroke-width:0.73044688;stroke-miterlimit:4;stroke-dasharray:none;stroke-opacity:0.98930485"
           ry="7.4875927"
           rx="12.856318"
           cy="109.20255"
           cx="72.375214"
           id="path3786-1" />
        <text
           id="text4595-8"
           y="113.32203"
           x="61.212265"
           style="font-style:normal;font-weight:normal;font-size:8.64162636px;line-height:1.25;font-family:sans-serif;letter-spacing:0px;word-spacing:0px;fill:#000000;fill-opacity:1;stroke:none;stroke-width:0.21604066"
           xml:space="preserve"
           transform="scale(1.0137004,0.98648475)"><tspan
             y="113.32203"
             x="61.212265"
             id="tspan4593-5"
             sodipodi:role="line"
             style="stroke-width:0.21604066">Slots</tspan></text>
      </g>
      <g
         transform="translate(-19.654762,72.9494)"
         id="g4718">
        <ellipse
           style="fill:none;stroke:#000000;stroke-width:0.87784433;stroke-miterlimit:4;stroke-dasharray:none;stroke-opacity:0.98930485"
           ry="7.4142828"
           rx="18.751991"
           cy="167.35417"
           cx="142.30804"
           id="path3786-2-2" />
        <text
           id="text4595-1-6"
           y="172.27032"
           x="126.17518"
           style="font-style:normal;font-weight:normal;font-size:8.64162636px;line-height:1.25;font-family:sans-serif;letter-spacing:0px;word-spacing:0px;fill:#000000;fill-opacity:1;stroke:none;stroke-width:0.21604066"
           xml:space="preserve"
           transform="scale(1.0137004,0.98648476)"><tspan
             y="172.27032"
             x="126.17518"
             id="tspan4593-7-4"
             sodipodi:role="line"
             style="stroke-width:0.21604066">Action</tspan></text>
      </g>
      <ellipse
         id="path3786-2-28"
         cx="26.08036"
         cy="207.41965"
         rx="24.549414"
         ry="7.3530736"
         style="fill:none;stroke:#000000;stroke-width:1.00026309;stroke-miterlimit:4;stroke-dasharray:none;stroke-opacity:0.98930485" />
      <text
         transform="scale(1.0137004,0.98648476)"
         xml:space="preserve"
         style="font-style:normal;font-weight:normal;font-size:8.64162636px;line-height:1.25;font-family:sans-serif;letter-spacing:0px;word-spacing:0px;fill:#000000;fill-opacity:1;stroke:none;stroke-width:0.21604066"
         x="6.8575039"
         y="212.88474"
         id="text4595-1-8"><tspan
           style="stroke-width:0.21604066"
           sodipodi:role="line"
           id="tspan4593-7-9"
           x="6.8575039"
           y="212.88474">Transcript</tspan></text>
      <g
         id="g5005"
         transform="translate(31.75,3.0238095)">
        <ellipse
           style="fill:none;stroke:#000000;stroke-width:0.93130946;stroke-miterlimit:4;stroke-dasharray:none;stroke-opacity:0.98930485"
           ry="7.3875508"
           rx="21.182104"
           cy="221.78275"
           cx="23.056551"
           id="path3786-2-28-1" />
        <text
           transform="scale(1.0117994,0.98833825)"
           xml:space="preserve"
           style="font-style:normal;font-weight:normal;font-size:10.69789314px;line-height:1.25;font-family:sans-serif;letter-spacing:0px;word-spacing:0px;fill:#000000;fill-opacity:1;stroke:none;stroke-width:0.26744732"
           x="8.748312"
           y="227.07411"
           id="text4964"><tspan
             sodipodi:role="line"
             id="tspan4962"
             x="8.748312"
             y="227.07411"
             style="font-style:normal;font-variant:normal;font-weight:normal;font-stretch:normal;font-size:7.13192844px;font-family:sans-serif;-inkscape-font-specification:'sans-serif, Normal';font-variant-ligatures:normal;font-variant-caps:normal;font-variant-numeric:normal;font-feature-settings:normal;text-align:start;writing-mode:lr-tb;text-anchor:start;stroke-width:0.26744732">Regexp</tspan></text>
      </g>
      <g
         transform="translate(52.916667,136.82738)"
         id="g4973">
        <ellipse
           style="fill:none;stroke:#000000;stroke-width:1.00026309;stroke-miterlimit:4;stroke-dasharray:none;stroke-opacity:0.98930485"
           ry="7.3530741"
           rx="24.549414"
           cy="98.940483"
           cx="-28.348215"
           id="path3786-2-28-3" />
        <text
           xml:space="preserve"
           style="font-style:normal;font-weight:normal;font-size:10.58333302px;line-height:1.25;font-family:sans-serif;letter-spacing:0px;word-spacing:0px;fill:#000000;fill-opacity:1;stroke:none;stroke-width:0.26458332"
           x="-46.113094"
           y="101.20834"
           id="text4968"><tspan
             sodipodi:role="line"
             id="tspan4966"
             x="-46.113094"
             y="101.20834"
             style="font-style:normal;font-variant:normal;font-weight:normal;font-stretch:normal;font-size:8.46666622px;font-family:sans-serif;-inkscape-font-specification:'sans-serif, Normal';font-variant-ligatures:normal;font-variant-caps:normal;font-variant-numeric:normal;font-feature-settings:normal;text-align:start;writing-mode:lr-tb;text-anchor:start;stroke-width:0.26458332">Examples</tspan></text>
      </g>
      <g
         id="g4939"
         transform="translate(-7.1815476,28.348214)">
        <g
           id="g4666"
           transform="translate(12.851191,97.895831)">
          <ellipse
             id="path3786-9"
             style="fill:none;stroke:#000000;stroke-width:0.87022215;stroke-miterlimit:4;stroke-dasharray:none;stroke-opacity:0.98930485"
             ry="7.4186497"
             rx="18.416916"
             cy="134.4726"
             cx="49.223724" />
          <text
             transform="scale(1.0137004,0.98648475)"
             xml:space="preserve"
             style="font-style:normal;font-weight:normal;font-size:8.64162636px;line-height:1.25;font-family:sans-serif;letter-spacing:0px;word-spacing:0px;fill:#000000;fill-opacity:1;stroke:none;stroke-width:0.21604066"
             x="32.818352"
             y="138.93826"
             id="text4595-7"><tspan
               style="stroke-width:0.21604066"
               sodipodi:role="line"
               id="tspan4593-53"
               x="32.818352"
               y="138.93826">Entities</tspan></text>
        </g>
        <g
           transform="translate(15.497024,-6.047619)"
           id="g4928">
          <g
             id="g4922">
            <ellipse
               cx="33.450893"
               cy="249.75298"
               rx="13.376958"
               ry="7.4813704"
               style="fill:none;stroke:#000000;stroke-width:0.74478084;stroke-miterlimit:4;stroke-dasharray:none;stroke-opacity:0.98930485"
               id="path3786-9-0" />
          </g>
          <text
             transform="scale(1.0137004,0.98648476)"
             xml:space="preserve"
             style="font-style:normal;font-weight:normal;font-size:8.64162636px;line-height:1.25;font-family:sans-serif;letter-spacing:0px;word-spacing:0px;fill:#000000;fill-opacity:1;stroke:none;stroke-width:0.21604066"
             x="22.665276"
             y="255.79803"
             id="text4595-7-6"><tspan
               style="stroke-width:0.21604066"
               sodipodi:role="line"
               id="tspan4593-53-4"
               x="22.665276"
               y="255.79803">Lists</tspan></text>
        </g>
      </g>
    </g>
  </g>
</svg>
