<?xml version="1.0" encoding="UTF-8" standalone="no"?>
<!-- Created with Inkscape (http://www.inkscape.org/) -->

<svg
   xmlns:dc="http://purl.org/dc/elements/1.1/"
   xmlns:cc="http://creativecommons.org/ns#"
   xmlns:rdf="http://www.w3.org/1999/02/22-rdf-syntax-ns#"
   xmlns:svg="http://www.w3.org/2000/svg"
   xmlns="http://www.w3.org/2000/svg"
   xmlns:sodipodi="http://sodipodi.sourceforge.net/DTD/sodipodi-0.dtd"
   xmlns:inkscape="http://www.inkscape.org/namespaces/inkscape"
   width="210mm"
   height="297mm"
   viewBox="0 0 210 297"
   version="1.1"
   id="svg8"
   inkscape:version="0.92.3 (2405546, 2018-03-11)"
   sodipodi:docname="drawing.svg">
  <defs
     id="defs2" />
  <sodipodi:namedview
     id="base"
     pagecolor="#ffffff"
     bordercolor="#666666"
     borderopacity="1.0"
     inkscape:pageopacity="0.0"
     inkscape:pageshadow="2"
     inkscape:zoom="0.7"
     inkscape:cx="135.71429"
     inkscape:cy="731.42857"
     inkscape:document-units="mm"
     inkscape:current-layer="g4752"
     showgrid="false"
     showguides="false"
     inkscape:window-width="1853"
     inkscape:window-height="1025"
     inkscape:window-x="67"
     inkscape:window-y="27"
     inkscape:window-maximized="1" />
  <metadata
     id="metadata5">
    <rdf:RDF>
      <cc:Work
         rdf:about="">
        <dc:format>image/svg+xml</dc:format>
        <dc:type
           rdf:resource="http://purl.org/dc/dcmitype/StillImage" />
        <dc:title></dc:title>
      </cc:Work>
    </rdf:RDF>
  </metadata>
  <g
     inkscape:label="Layer 1"
     inkscape:groupmode="layer"
     id="layer1">
    <g
       id="g4752">
      <path
         id="path3765"
         d="m 146.73765,63.288686 c -0.82977,-0.863806 -3.99357,-5.956756 -3.99357,-7.309761 0,-0.617008 0.12729,-1.122953 0.28847,-1.76464 0.25028,-0.991617 0.55996,-2.226513 0.55996,-4.405426 0,-5.247199 -3.30379,-18.934165 -13.11932,-25.424191 -5.0626,-3.346821 -13.36453,-5.426132 -21.66644,-5.426132 -3.26733,0 -14.494645,0.590564 -21.810684,8.191202 -6.224107,6.465346 -7.88449,18.393844 -7.88449,24.421998 0,5.193429 2.76674,11.835946 5.133869,16.09858 0.03732,0.142803 0.09756,0.278534 0.205321,0.390477 0.0059,0.0062 0.01353,0.007 0.01866,0.01319 0.579478,1.01806 1.129264,1.886277 1.599296,2.53678 2.410399,3.339769 3.224047,4.98541 3.224047,6.522639 0,5.595365 -1.64087,13.421656 -4.179383,19.939889 -0.04243,0.10842 -0.06278,0.22388 -0.06194,0.34023 0,0.0564 0.02036,0.11019 0.03139,0.1666 0.01108,0.0555 0.01271,0.11106 0.03393,0.16394 0.05939,0.14808 0.16714,0.26796 0.29695,0.36492 0.08145,0.0599 0.166294,0.10665 0.259622,0.13309 0.07466,0.022 0.150177,0.0458 0.225683,0.0458 0.100107,0 0.195988,-0.0229 0.287619,-0.0582 0.02715,-0.01 0.0509,-0.0238 0.07636,-0.037 0.06958,-0.0344 0.13321,-0.0784 0.191747,-0.13134 0.01434,-0.0132 0.03139,-0.0176 0.04497,-0.0309 l 6.787467,-7.0515 c 0.331741,-0.344639 0.331741,-0.901707 0,-1.246351 -0.331739,-0.34464 -0.867948,-0.34464 -1.199685,0 l -4.086055,4.245001 c 0.30374,-0.9493 0.586267,-1.9039 0.848433,-2.86467 0.06787,-0.0388 0.137448,-0.074 0.195141,-0.13397 l 6.787467,-7.051509 c 0.33173,-0.34464 0.33173,-0.901709 0,-1.246352 -0.33174,-0.34464 -0.86795,-0.34464 -1.19969,0 l -4.973512,5.166106 c 0.277438,-1.253405 0.519241,-2.492704 0.712683,-3.708206 0.134905,-0.03967 0.263863,-0.101374 0.369917,-0.211548 l 6.787462,-7.051503 c 0.33174,-0.34464 0.33174,-0.901709 0,-1.246352 -0.33173,-0.344644 -0.86794,-0.344644 -1.19968,0 l -5.598811,5.81661 c 0.112836,-1.047151 0.180716,-2.050228 0.21635,-3.02069 l 6.581301,-6.838193 c 0.33173,-0.344643 0.33173,-0.901712 0,-1.246352 -0.33174,-0.344644 -0.86795,-0.344644 -1.19969,0 l -5.453722,5.665919 c -0.117928,-0.642484 -0.334273,-1.313258 -0.695706,-2.07306 l 5.652258,-5.872135 c 0.33174,-0.344645 0.33174,-0.901714 0,-1.246357 -0.33173,-0.34464 -0.86794,-0.34464 -1.19968,0 l -5.326463,5.533667 c -0.312225,-0.512112 -0.668566,-1.062133 -1.085147,-1.668562 l 5.066844,-5.263945 c 0.331736,-0.344643 0.331736,-0.901712 0,-1.246352 -0.331738,-0.344643 -0.867948,-0.344643 -1.199685,0 l -4.877642,5.067384 c -0.343616,-0.49625 -0.701655,-1.061253 -1.069027,-1.685308 l 4.601053,-4.780038 c 0.331738,-0.34464 0.331738,-0.901709 0,-1.246352 -0.331737,-0.344644 -0.867947,-0.344644 -1.199684,0 l -4.28289,4.449499 c -0.307982,-0.584394 -0.615115,-1.20581 -0.91631,-1.844852 l 4.702019,-4.884047 c 0.331737,-0.344643 0.331737,-0.901709 0,-1.246352 -0.331738,-0.344643 -0.867948,-0.344643 -1.199685,0 l -4.26762,4.43275 c -0.29271,-0.684876 -0.570995,-1.386502 -0.83401,-2.095176 0.131515,-0.03967 0.258772,-0.101374 0.362281,-0.209784 l 5.090599,-5.288625 c 0.331739,-0.344643 0.331739,-0.901712 0,-1.246352 -0.331737,-0.344645 -0.867946,-0.344645 -1.199685,0 l -4.848795,5.037415 C 81.9148,57.910154 81.706084,57.190901 81.525368,56.481345 l 6.67123,-6.930747 c 0.331739,-0.344642 0.331739,-0.901711 0,-1.246352 -0.331737,-0.344644 -0.867946,-0.344644 -1.199685,0 l -5.90764,6.13745 c -0.151872,-0.878791 -0.244348,-1.724093 -0.265559,-2.519148 l 6.524451,-6.778258 c 0.331737,-0.344642 0.331737,-0.901711 0,-1.246352 -0.331737,-0.344642 -0.867947,-0.344642 -1.199684,0 l -5.270468,5.475491 c 0.056,-0.983684 0.150177,-2.051987 0.290164,-3.181108 0.0857,-0.04231 0.169687,-0.09167 0.240956,-0.165711 l 6.787465,-7.051503 c 0.331739,-0.344642 0.331739,-0.901711 0,-1.246352 -0.331737,-0.344644 -0.867946,-0.344644 -1.199685,0 l -5.390944,5.600656 c 0.246894,-1.345075 0.567601,-2.728933 0.956184,-4.107501 0.197686,-0.01417 0.392825,-0.08991 0.543846,-0.246803 l 6.787466,-7.051502 c 0.331738,-0.344643 0.331738,-0.90171 0,-1.246353 -0.331737,-0.344642 -0.867947,-0.344642 -1.199684,0 l -5.022725,5.218112 c 1.097024,-2.820602 2.564814,-5.460507 4.525542,-7.49751 6.853647,-7.1229 17.508272,-7.676443 20.610152,-7.676443 7.87601,0 16.02266,2.022019 20.75522,5.151123 8.71595,5.76196 12.33368,18.432628 12.33368,23.936325 0,1.952385 -0.2681,3.018923 -0.50483,3.960299 -0.17646,0.702507 -0.34361,1.366229 -0.34361,2.209767 0,2.142777 3.61093,7.642067 4.49076,8.556118 1.83346,1.905666 2.26192,2.639025 2.29671,2.902572 0,0.977516 -0.6779,1.399726 -2.22544,2.12779 -0.87559,0.411635 -1.86825,0.878796 -2.61657,1.656223 -0.24012,0.249448 -0.31392,0.623176 -0.18835,0.950191 l 1.47541,3.832492 c -0.58286,0.486552 -1.54245,1.129122 -2.38408,1.129122 -0.39368,0 -0.7356,0.280296 -0.82554,0.678704 -0.0908,0.398411 0.0942,0.80916 0.44543,0.99162 0.6847,0.354338 0.98673,0.903473 1.12164,1.31334 -0.93073,0.462758 -2.4384,1.478172 -2.4384,3.186401 0,1.208449 0.34446,2.073141 0.59644,2.704249 0.13577,0.339354 0.25199,0.631993 0.25199,0.821501 0,0.04407 -0.18496,4.407193 -6.78746,4.407193 -10.58845,0 -18.07078,-5.925913 -18.14545,-5.984965 -0.36991,-0.297928 -0.90189,-0.228294 -1.1895,0.15601 -0.28762,0.385188 -0.22145,0.937848 0.1493,1.235773 0.17394,0.141028 2.52409,1.997338 6.41161,3.667664 -1.61371,4.209748 -2.44517,6.790598 -2.45451,6.816158 -0.14767,0.46099 0.0924,0.96077 0.53706,1.1159 0.0892,0.0299 0.17986,0.045 0.2681,0.045 0.35549,0 0.68639,-0.23358 0.80517,-0.6029 0.008,-0.0256 0.82891,-2.57116 2.42736,-6.73948 3.05606,1.13618 6.85535,2.05375 11.19084,2.05375 6.9597,0 8.48433,-4.453901 8.48433,-6.170061 0,-0.540322 -0.18496,-1.003957 -0.38095,-1.494918 -0.22993,-0.577343 -0.46748,-1.173193 -0.46748,-2.030832 0,-0.910529 1.45675,-1.6289 1.96496,-1.80783 0.34702,-0.119873 0.58034,-0.456586 0.58034,-0.836484 0,-0.06522 -0.0114,-1.167025 -0.74407,-2.20536 1.17677,-0.550898 2.05659,-1.437624 2.19235,-1.578655 0.24009,-0.249446 0.31391,-0.623174 0.18834,-0.950191 l -1.47033,-3.818387 c 0.4921,-0.366678 1.10552,-0.654028 1.7028,-0.936085 1.43555,-0.675182 3.22151,-1.515194 3.22151,-3.732891 0,-1.04274 -1.02406,-2.310249 -2.79389,-4.148929 z"
         inkscape:connector-curvature="0"
         style="stroke-width:0.8647781" />
      <g
         transform="translate(27.592261,-25.702381)"
         id="g4671">
        <ellipse
           style="fill:none;stroke:#000000;stroke-width:0.78795302;stroke-miterlimit:4;stroke-dasharray:none;stroke-opacity:0.98930485"
           ry="7.4592285"
           rx="15.017177"
           cy="47.854206"
           cx="43.279427"
           id="path3786" />
        <text
           id="text4595"
           y="51.133175"
           x="30.349316"
           style="font-style:normal;font-weight:normal;font-size:8.64162636px;line-height:1.25;font-family:sans-serif;letter-spacing:0px;word-spacing:0px;fill:#000000;fill-opacity:1;stroke:none;stroke-width:0.21604066"
           xml:space="preserve"
           transform="scale(1.0137004,0.98648475)"><tspan
             y="51.133175"
             x="30.349316"
             id="tspan4593"
             sodipodi:role="line"
             style="stroke-width:0.21604066">Intent</tspan></text>
      </g>
      <g
         transform="translate(40.443452,-39.6875)"
         id="g4656">
        <ellipse
           style="fill:none;stroke:#000000;stroke-width:1.00026309;stroke-miterlimit:4;stroke-dasharray:none;stroke-opacity:0.98930485"
           ry="7.3530736"
           rx="24.549414"
           cy="116.81402"
           cx="139.57945"
           id="path3786-2" />
        <text
           id="text4595-1"
           y="121.03776"
           x="115.83969"
           style="font-style:normal;font-weight:normal;font-size:8.64162636px;line-height:1.25;font-family:sans-serif;letter-spacing:0px;word-spacing:0px;fill:#000000;fill-opacity:1;stroke:none;stroke-width:0.21604066"
           xml:space="preserve"
           transform="scale(1.0137004,0.98648475)"><tspan
             y="121.03776"
             x="115.83969"
             id="tspan4593-7"
             sodipodi:role="line"
             style="stroke-width:0.21604066">Utterance</tspan></text>
      </g>
      <g
         transform="translate(35.907738,-79.375)"
         id="g4661">
        <ellipse
           style="fill:none;stroke:#000000;stroke-width:0.73044688;stroke-miterlimit:4;stroke-dasharray:none;stroke-opacity:0.98930485"
           ry="7.4875927"
           rx="12.856318"
           cy="109.20255"
           cx="72.375214"
           id="path3786-1" />
        <text
           id="text4595-8"
           y="113.32203"
           x="61.212265"
           style="font-style:normal;font-weight:normal;font-size:8.64162636px;line-height:1.25;font-family:sans-serif;letter-spacing:0px;word-spacing:0px;fill:#000000;fill-opacity:1;stroke:none;stroke-width:0.21604066"
           xml:space="preserve"
           transform="scale(1.0137004,0.98648475)"><tspan
             y="113.32203"
             x="61.212265"
             id="tspan4593-5"
             sodipodi:role="line"
             style="stroke-width:0.21604066">Slots</tspan></text>
      </g>
      <g
         transform="translate(12.473215,-96.383929)"
         id="g4666">
        <ellipse
           cx="49.223724"
           cy="134.4726"
           rx="18.416916"
           ry="7.4186497"
           style="fill:none;stroke:#000000;stroke-width:0.87022215;stroke-miterlimit:4;stroke-dasharray:none;stroke-opacity:0.98930485"
           id="path3786-9" />
        <text
           id="text4595-7"
           y="138.93826"
           x="32.818352"
           style="font-style:normal;font-weight:normal;font-size:8.64162636px;line-height:1.25;font-family:sans-serif;letter-spacing:0px;word-spacing:0px;fill:#000000;fill-opacity:1;stroke:none;stroke-width:0.21604066"
           xml:space="preserve"
           transform="scale(1.0137004,0.98648475)"><tspan
             y="138.93826"
             x="32.818352"
             id="tspan4593-53"
             sodipodi:role="line"
             style="stroke-width:0.21604066">Entities</tspan></text>
      </g>
      <g
         transform="translate(-20.032738,-121.33036)"
         id="g4718">
        <ellipse
           style="fill:none;stroke:#000000;stroke-width:0.87784433;stroke-miterlimit:4;stroke-dasharray:none;stroke-opacity:0.98930485"
           ry="7.4142828"
           rx="18.751991"
           cy="167.35417"
           cx="142.30804"
           id="path3786-2-2" />
        <text
           id="text4595-1-6"
           y="172.27032"
           x="126.17518"
           style="font-style:normal;font-weight:normal;font-size:8.64162636px;line-height:1.25;font-family:sans-serif;letter-spacing:0px;word-spacing:0px;fill:#000000;fill-opacity:1;stroke:none;stroke-width:0.21604066"
           xml:space="preserve"
           transform="scale(1.0137004,0.98648476)"><tspan
             y="172.27032"
             x="126.17518"
             id="tspan4593-7-4"
             sodipodi:role="line"
             style="stroke-width:0.21604066">Action</tspan></text>
      </g>
      <g
         transform="translate(-30.238095,-109.6131)"
         id="g4723">
        <ellipse
           style="fill:none;stroke:#000000;stroke-width:1.00026309;stroke-miterlimit:4;stroke-dasharray:none;stroke-opacity:0.98930485"
           ry="7.3530736"
           rx="24.549414"
           cy="128.42262"
           cx="56.318455"
           id="path3786-2-28" />
        <text
           id="text4595-1-8"
           y="132.8054"
           x="36.686924"
           style="font-style:normal;font-weight:normal;font-size:8.64162636px;line-height:1.25;font-family:sans-serif;letter-spacing:0px;word-spacing:0px;fill:#000000;fill-opacity:1;stroke:none;stroke-width:0.21604066"
           xml:space="preserve"
           transform="scale(1.0137004,0.98648476)"><tspan
             y="132.8054"
             x="36.686924"
             id="tspan4593-7-9"
             sodipodi:role="line"
             style="stroke-width:0.21604066">Example</tspan></text>
      </g>
    </g>
  </g>
</svg>
